HIERARCHY
ROOT root
{
	OFFSET	0	13.1	24.9
	CHANNELS 6  Xposition Yposition Zposition Xrotation Yrotation Zrotation
	JOINT spine_1
	{
		OFFSET	0	9.99999	0
		CHANNELS 3  Xrotation Yrotation Zrotation
		JOINT spine_2
		{
			OFFSET	0	112	-10
			CHANNELS 3  Xrotation Yrotation Zrotation
			JOINT spine_3
			{
				OFFSET	0	206.5	19.3
				CHANNELS 3  Xrotation Yrotation Zrotation
				JOINT spine_4
				{
					OFFSET	0	110.4	14.6
					CHANNELS 3  Xrotation Yrotation Zrotation
					JOINT neck_1
					{
						OFFSET	0	71.8	-50.3
						CHANNELS 3  Xrotation Yrotation Zrotation
						JOINT neck_2
						{
							OFFSET	0	86.2	-25.8
							CHANNELS 3  Xrotation Yrotation Zrotation
							JOINT head_ee
							{
								OFFSET	0	179.8	-8.7
								CHANNELS 3  Xrotation Yrotation Zrotation
								End Site
								{
									OFFSET	1	0	0
								}
							}
						}
					}
					JOINT left_clavicle
					{
						OFFSET	-43.2	22.4	-70.8
						CHANNELS 3  Xrotation Yrotation Zrotation
						JOINT left_shoulder
						{
							OFFSET	-93.9	-5.79999	48.7
							CHANNELS 3  Xrotation Yrotation Zrotation
							JOINT left_elbow
							{
								OFFSET	-291.4	-30.8	15.2
								CHANNELS 3  Xrotation Yrotation Zrotation
								JOINT left_lowarm_twist
								{
									OFFSET	-110.7	-3.89999	13.6
									CHANNELS 3  Xrotation Yrotation Zrotation
									JOINT left_hand
									{
										OFFSET	-110.7	-3.89999	13.6
										CHANNELS 3  Xrotation Yrotation Zrotation
										JOINT left_ee
										{
											OFFSET	-80.8	-5.10001	12.1
											CHANNELS 3  Xrotation Yrotation Zrotation
											End Site
											{
												OFFSET	1	0	0
											}
										}
									}
								}
							}
						}
					}
					JOINT right_clavicle
					{
						OFFSET	43.2	22.4	-70.8
						CHANNELS 3  Xrotation Yrotation Zrotation
						JOINT right_shoulder
						{
							OFFSET	93.9	-5.79999	48.7
							CHANNELS 3  Xrotation Yrotation Zrotation
							JOINT right_elbow
							{
								OFFSET	291.4	-30.8	15.2
								CHANNELS 3  Xrotation Yrotation Zrotation
								JOINT right_lowarm_twist
								{
									OFFSET	110.7	-3.89999	13.6
									CHANNELS 3  Xrotation Yrotation Zrotation
									JOINT right_hand
									{
										OFFSET	110.7	-3.89999	13.6
										CHANNELS 3  Xrotation Yrotation Zrotation
										JOINT right_ee
										{
											OFFSET	80.8	-5.10001	12.1
											CHANNELS 3  Xrotation Yrotation Zrotation
											End Site
											{
												OFFSET	1	0	0
											}
										}
									}
								}
							}
						}
					}
				}
			}
		}
	}
	JOINT left_hip
	{
		OFFSET	-82.8	-127.5	0.300001
		CHANNELS 3  Xrotation Yrotation Zrotation
		JOINT left_knee
		{
			OFFSET	-28.2	-396.7	2.2
			CHANNELS 3  Xrotation Yrotation Zrotation
			JOINT left_ankle
			{
				OFFSET	-11.7	-411.3	35.4
				CHANNELS 3  Xrotation Yrotation Zrotation
				JOINT left_toes
				{
					OFFSET	0	-60	-88.6
					CHANNELS 3  Xrotation Yrotation Zrotation
					JOINT left_foot_ee
					{
						OFFSET	-22.5	-16.5	-42.2
						CHANNELS 3  Xrotation Yrotation Zrotation
						End Site
						{
							OFFSET	1	0	0
						}
					}
				}
			}
		}
	}
	JOINT right_hip
	{
		OFFSET	82.8	-127.5	0.300001
		CHANNELS 3  Xrotation Yrotation Zrotation
		JOINT right_knee
		{
			OFFSET	28.2	-396.7	2.2
			CHANNELS 3  Xrotation Yrotation Zrotation
			JOINT right_ankle
			{
				OFFSET	11.7	-411.3	35.4
				CHANNELS 3  Xrotation Yrotation Zrotation
				JOINT right_toes
				{
					OFFSET	0	-60	-88.6
					CHANNELS 3  Xrotation Yrotation Zrotation
					JOINT right_foot_ee
					{
						OFFSET	22.5	-16.5	-42.2
						CHANNELS 3  Xrotation Yrotation Zrotation
						End Site
						{
							OFFSET	1	0	0
						}
					}
				}
			}
		}
	}
}
MOTION
Frames: 6
Frame Time: 0.02
2103.68 678.456 -601.531 153.435 -80.2805 159.807 -1.75611 -0.0821089 -0.637209 -1.75589 -0.0413961 -0.641142 -1.75521 0.113706 -0.632335 -1.75576 0.012416 -0.642357 -12.027 2.32716 1.05844 -12.0314 3.73171 1.67142 -0.0 0.0 -0.0 -1.64278 15.4159 -0.802897 -24.757 -25.6032 78.3573 0.195252 -5.52473 0.00942082 -81.6631 -8.03242 5.25426 3.62391 -0.35881 24.8803 -0.0 0.0 -0.0 4.05999 22.1058 -6.20894 31.9977 20.2545 -69.0624 2.59916 52.1558 -1.27224 60.8246 1.84789 7.18347 1.29611 -7.04388 -11.4506 0.0 0.0 0.0 26.1939 16.2654 -13.4156 1.42598 -0.0613415 -0.210215 23.4205 24.353 -3.29834 -21.9525 0.0 0.0 -0.0 0.0 -0.0 -27.2295 27.8864 -7.75394 1.06909 0.0454978 0.157744 27.9395 -14.8677 3.70441 12.4238 -0.0 -0.0 0.0 0.0 0.0 
2122.99 675.741 -608.196 157.792 -79.8899 164.228 -1.65724 -0.0127228 -0.444821 -1.65713 0.0156078 -0.444729 -1.65716 0.121167 -0.428189 -1.65742 0.052022 -0.441951 -11.5244 2.69319 1.43072 -11.5272 4.16587 2.11459 -0.0 0.0 -0.0 -1.53463 15.2738 -0.652373 -24.6019 -25.3157 78.695 0.197248 -5.58084 0.00961394 -81.0091 -7.94972 5.26502 4.042 -3.18797 26.8124 -0.0 0.0 -0.0 3.77884 22.5247 -5.55999 30.855 21.5322 -69.1568 2.67502 52.9509 -1.33246 60.6597 1.83301 7.16845 1.37176 -7.71791 -12.2076 0.0 0.0 0.0 25.9131 16.3097 -13.1612 1.76725 -0.0767982 -0.260299 21.8628 25.909 -3.12788 -22.0975 0.0 0.0 -0.0 0.0 -0.0 -27.2371 28.2397 -7.72045 0.533072 0.0223175 0.0787589 27.2042 -15.3363 3.6254 11.9453 -0.0 -0.0 0.0 0.0 0.0 
2144.3 674.104 -615.978 159.956 -79.3649 166.42 -1.51651 0.0137959 -0.484131 -1.51638 0.0445741 -0.482272 -1.51667 0.157125 -0.458133 -1.51695 0.0828007 -0.477198 -12.1202 3.03591 1.97879 -12.1204 4.48843 2.75815 -0.0 0.0 -0.0 -1.2673 15.6872 -0.164229 -23.9635 -25.1459 78.755 0.235772 -6.66181 0.0137222 -80.4072 -7.87347 5.27407 4.39138 -5.73008 28.3218 -0.0 0.0 -0.0 3.26043 22.8471 -4.40657 29.0993 22.481 -68.9686 2.7496 53.705 -1.39228 60.3288 1.80329 7.13818 1.45436 -8.30703 -12.9763 0.0 0.0 0.0 25.7084 16.4542 -12.8297 0.411957 -0.0171826 -0.0608825 20.0856 27.0903 -2.91613 -22.1079 0.0 0.0 -0.0 0.0 -0.0 -27.5175 28.3303 -6.7744 0.153395 0.00634703 0.0226841 27.2285 -17.0681 3.64701 11.6203 -0.0 -0.0 0.0 0.0 0.0 
2174.38 677.956 -625.744 161.164 -79.4307 167.587 -1.54144 -0.0487249 -0.650996 -1.54121 -0.00720248 -0.652777 -1.54093 0.147318 -0.635978 -1.54149 0.0450305 -0.651262 -11.8721 3.51592 2.4314 -11.8692 5.09324 3.31774 -0.0 0.0 -0.0 -1.08104 15.8639 0.156396 -23.6319 -25.3407 78.3071 0.2648 -7.47324 0.0172938 -80.2916 -7.85882 5.27572 4.64351 -7.55247 29.3893 -0.0 0.0 -0.0 2.48859 22.8512 -2.73677 27.4706 23.3583 -69.0564 2.76844 53.8913 -1.40749 59.94 1.76859 7.1024 1.50048 -8.68447 -13.4223 0.0 0.0 0.0 24.8589 16.6828 -12.1203 -1.28156 0.0506434 0.190149 21.3194 27.7001 -3.09167 -21.5298 0.0 0.0 -0.0 0.0 -0.0 -27.6345 28.2553 -5.83636 -1.13513 -0.0450723 -0.168367 26.9832 -19.0315 3.64411 11.3597 -0.0 -0.0 0.0 0.0 0.0 
2194.15 683.501 -632.754 161.317 -79.0489 167.4 -1.55294 -0.0633357 -0.606916 -1.55274 -0.0245884 -0.609716 -1.5523 0.120362 -0.598224 -1.5528 0.0243753 -0.609724 -13.7573 4.1558 4.76478 -13.7108 4.99243 5.81253 -0.0 0.0 -0.0 -0.887075 15.8778 0.464899 -21.5123 -25.6913 78.1926 0.330495 -9.29804 0.0268757 -79.8343 -7.80082 5.28194 4.62594 -7.52954 29.2649 -0.0 0.0 -0.0 2.40814 22.9556 -2.55208 24.7319 23.6589 -68.9208 2.73175 53.527 -1.37792 59.4464 1.72489 7.05663 1.52131 -9.09026 -13.7094 0.0 0.0 0.0 24.5462 17.0667 -11.6908 -4.94772 0.171858 0.739645 23.0211 26.1532 -3.28188 -21.3089 0.0 0.0 -0.0 0.0 -0.0 -27.6171 29.0265 -4.54336 -2.48762 -0.0944022 -0.370067 25.9173 -19.4507 3.52464 10.3734 -0.0 -0.0 0.0 0.0 0.0 
2210.84 686.406 -638.049 161.458 -79.2053 167.479 -1.48182 -0.155815 -0.741464 -1.48152 -0.108319 -0.749875 -1.4798 0.0712106 -0.754304 -1.48059 -0.0488079 -0.756084 -14.7723 4.27551 5.31206 -14.7124 4.99636 6.41408 -0.0 0.0 -0.0 -0.611767 16.5481 0.987114 -19.5631 -25.461 77.4429 0.373428 -10.4806 0.0342497 -79.2582 -7.72765 5.28912 4.71296 -7.89314 29.7586 -0.0 0.0 -0.0 2.22258 23.6046 -2.08375 22.5164 24.1476 -68.7065 2.59332 52.0934 -1.26763 58.9182 1.67857 7.00724 1.50465 -9.38508 -13.7061 0.0 0.0 0.0 23.8689 17.0463 -11.0012 -6.36727 0.209305 0.954273 21.4748 26.4365 -3.08729 -21.6615 0.0 0.0 -0.0 0.0 -0.0 -27.0355 28.2246 -4.1394 -2.65204 -0.100073 -0.394662 25.51 -20.0762 3.48502 10.1973 -0.0 -0.0 0.0 0.0 0.0 
